<?xml version="1.0" encoding="UTF-8" standalone="no"?>
<!-- Created with Inkscape (http://www.inkscape.org/) -->

<svg
   width="75.778847mm"
   height="100.66586mm"
   viewBox="0 0 75.778847 100.66586"
   version="1.1"
   id="svg1"
   xml:space="preserve"
   inkscape:version="1.4.2 (ebf0e940, 2025-05-08)"
   sodipodi:docname="muscle-groups.svg"
   xmlns:inkscape="http://www.inkscape.org/namespaces/inkscape"
   xmlns:sodipodi="http://sodipodi.sourceforge.net/DTD/sodipodi-0.dtd"
   xmlns="http://www.w3.org/2000/svg"
   xmlns:svg="http://www.w3.org/2000/svg"><sodipodi:namedview
     id="namedview1"
     pagecolor="#ffffff"
     bordercolor="#000000"
     borderopacity="0.25"
     inkscape:showpageshadow="2"
     inkscape:pageopacity="0.0"
     inkscape:pagecheckerboard="0"
     inkscape:deskcolor="#d1d1d1"
     inkscape:document-units="mm"
     inkscape:zoom="2.096401"
     inkscape:cx="46.269774"
     inkscape:cy="249.23667"
     inkscape:window-width="3008"
     inkscape:window-height="1634"
     inkscape:window-x="0"
     inkscape:window-y="30"
     inkscape:window-maximized="1"
     inkscape:current-layer="layer1" /><defs
     id="defs1" /><g
     inkscape:label="Layer 1"
     inkscape:groupmode="layer"
     id="layer1"><path
       style="opacity:1;fill:#ff0000;stroke:#333333;stroke-width:0.901432;stroke-linecap:round;stroke-linejoin:round;paint-order:stroke fill markers"
       d=""
       id="path107"
       transform="scale(0.26458333)" /><path
       style="opacity:1;fill:#ff0000;stroke:#333333;stroke-width:0.901432;stroke-linecap:round;stroke-linejoin:round;paint-order:stroke fill markers"
       d=""
       id="path108"
       transform="scale(0.26458333)" /><path
       style="opacity:1;fill:#ff0000;stroke:#333333;stroke-width:0.450716;stroke-linecap:round;stroke-linejoin:round;paint-order:stroke fill markers"
       d=""
       id="path112"
       transform="scale(0.26458333)" /><path
       style="opacity:1;fill:#ff0000;stroke:none;stroke-width:0.901432;stroke-linecap:round;stroke-linejoin:round;paint-order:stroke fill markers"
       d=""
       id="path116"
       transform="scale(0.26458333)" /><path
       style="opacity:1;fill:#ff0000;stroke:none;stroke-width:0.901432;stroke-linecap:round;stroke-linejoin:round;paint-order:stroke fill markers"
       d=""
       id="path119"
       transform="scale(0.26458333)" /><path
       style="opacity:1;fill:#ff0000;stroke:none;stroke-width:0.901432;stroke-linecap:round;stroke-linejoin:round;paint-order:stroke fill markers"
       d=""
       id="path120"
       transform="scale(0.26458333)" /><path
       style="opacity:1;fill:#ff0000;stroke:none;stroke-width:0.901432;stroke-linecap:round;stroke-linejoin:round;paint-order:stroke fill markers"
       d=""
       id="path121"
       transform="scale(0.26458333)" /><path
       style="opacity:1;fill:#1a1a1a;stroke:none;stroke-width:0.445366;stroke-linecap:round;stroke-linejoin:round;paint-order:stroke fill markers"
       d="m 13.87,87.77 c -0.04,-0.04 -0.36,-0.09 -0.7,-0.11 -0.34,-0.02 -0.73,-0.05 -0.85,-0.08 -1.6,-0.36 -2.02,-0.67 -1.7,-1.29 0.08,-0.15 0.39,-0.53 0.7,-0.86 0.83,-0.87 1.82,-2.57 1.95,-3.36 0.2,-1.21 -0.39,-2.42 -0.83,-4.4 -0.23,-1.04 -0.6,-2.48 -0.77,-3.42 -0.17,-0.94 -0.35,-2.21 -0.44,-2.67 -0.54,-2.58 -0.91,-4.08 -0.08,-6.66 0.47,-1.48 0.53,-1.75 0.53,-2.79 0,-0.67 -0.08,-1.45 -0.18,-1.85 -1.14,-4.33 -1.28,-5.33 -1.28,-8.72 0,-2.03 0.06,-3.05 0.21,-4.07 0.48,-3.02 1.12,-5.82 1.78,-7.77 0.61,-1.81 0.86,-3.93 0.66,-5.72 -0.15,-1.36 -0.39,-2.29 -1.05,-4.18 -0.56,-1.61 -0.84,-2.66 -0.85,-3.2 -0.01,-0.6 -0.17,-0.12 -0.34,1.02 -0.22,1.45 -0.68,3.09 -1.12,4.05 -0.39,0.84 -0.23,1.23 -0.23,2.61 -0.01,2.34 0.03,3.04 -1.26,5.88 -1.09,2.42 -1.63,2.87 -0.93,4.18 0.35,0.67 0.48,1.07 0.54,1.68 0.04,0.44 0.12,0.96 0.18,1.16 0.22,0.77 0.25,1.29 0.08,1.52 -0.27,0.37 -0.63,0.07 -0.86,-0.72 -0.45,-1.55 -0.9,-1.4 -0.64,0.21 0.11,0.72 0.16,0.8 0.79,1.38 0.55,0.51 0.64,0.65 0.52,0.79 -0.17,0.21 -0.64,0.14 -1.42,-0.19 -0.63,-0.27 -1.14,-0.74 -1.85,-1.69 l -0.52,-0.7 0.08,-0.95 c 0.04,-0.52 0.15,-1.66 0.24,-2.54 0.1,-0.97 0.17,-2.98 0.17,-5.13 0.01,-4.25 0.1,-4.94 0.87,-6.48 0.52,-1.03 0.53,-1.1 0.6,-2.47 0.09,-1.67 0.32,-3.21 0.6,-3.95 0.15,-0.39 0.22,-1.07 0.27,-2.53 0.07,-1.92 0.09,-2.04 0.44,-2.78 0.66,-1.4 1.46,-2.08 3.11,-2.64 1.11,-0.38 5.81,-2.22 6.24,-2.61 0.44,-0.41 0.62,-1.15 0.54,-2.23 -0.08,-1.11 -0.3,-1.74 -0.67,-1.92 -0.69,-0.34 -1.13,-2.68 -0.51,-2.77 0.23,-0.03 0.25,-0.13 0.31,-1.18 0.09,-1.72 0.61,-2.74 1.67,-3.3 0.53,-0.28 0.72,-0.31 1.72,-0.31 0.92,0.01 1.22,0.05 1.68,0.28 1.17,0.57 1.71,1.61 1.82,3.46 0.05,0.9 0.09,1.03 0.28,1.03 0.14,0 0.25,0.11 0.3,0.3 0.2,0.79 -0.32,2.52 -0.76,2.52 -0.43,0 -0.77,2.12 -0.53,3.3 0.04,0.21 0.25,0.55 0.46,0.76 0.47,0.47 5.29,2.36 6.58,2.78 2.56,0.84 3.57,2.44 3.57,5.71 0,1.02 0.06,1.41 0.35,2.36 0.37,1.21 0.59,2.71 0.59,4.11 0,0.8 0.04,0.92 0.6,1.97 0.83,1.56 0.91,2.1 1,6.96 0.04,2.21 0.14,4.59 0.23,5.3 0.3,2.43 0.33,2.84 0.17,3.14 -0.35,0.66 -1.47,1.88 -1.93,2.09 -0.83,0.39 -1.47,0.55 -1.62,0.39 -0.19,-0.19 0.06,-0.63 0.51,-0.89 0.46,-0.27 0.65,-0.69 0.74,-1.6 0.1,-1.04 -0.07,-1.29 -0.39,-0.59 -0.13,0.29 -0.24,0.61 -0.24,0.72 -0,0.3 -0.47,0.81 -0.73,0.81 -0.22,0 -0.23,-0.06 -0.18,-0.8 0.14,-2.01 0.3,-2.85 0.64,-3.53 0.58,-1.15 0.21,-1.54 0.05,-2.23 -0.08,-0.34 -0.46,-1.27 -0.9,-2.25 -1.27,-2.82 -1.34,-3.21 -1.41,-5.44 -0.05,-1.64 -0.06,-2.31 -0.28,-2.77 -0.71,-1.52 -0.9,-3.17 -1.16,-5.38 l -0.09,-0.77 -0.2,1.3 c -0.12,0.76 -0.42,1.93 -0.74,2.84 -1,2.91 -1.25,4.48 -1.03,6.5 0.16,1.43 0.33,2.16 0.91,3.91 1.16,3.5 1.92,7.85 1.93,10.96 0,2.75 -0.91,5.11 -1.7,8.3 -0.45,1.83 -0.88,1.89 -0.82,3 0.05,0.8 0.15,1.39 0.32,1.83 0.73,1.86 1.35,2.72 1.36,4.45 0.01,1.78 0.09,0.87 -1.42,8.38 -0.55,2.76 -1.09,3.55 -0.79,5.08 0.14,0.72 1.06,2.24 1.91,3.15 0.67,0.72 0.92,1.19 0.77,1.43 -0.1,0.17 -0.77,0.49 -1.02,0.49 -0.12,0 -0.24,0.05 -0.28,0.12 -0.04,0.06 -0.19,0.12 -0.33,0.13 -0.32,0.01 -1.36,0.1 -2.12,0.19 -0.65,0.07 -1.14,-0.09 -1.37,-0.46 -0.09,-0.14 -0.2,-0.7 -0.24,-1.25 -0.07,-0.91 -0.11,-1.01 -0.45,-1.33 -0.32,-0.3 -0.37,-0.43 -0.37,-0.93 0,-0.32 0.08,-0.83 0.19,-1.13 0.1,-0.3 0.16,-0.71 0.14,-0.91 -0.03,-0.2 -0.01,-0.55 0.05,-0.78 0.06,-0.23 0.15,-0.81 0.22,-1.29 0.21,-1.55 -0.59,-6.33 -1.03,-7.21 -0.68,-1.33 -0.43,-3.89 0.15,-6.29 0.44,-1.81 0.42,-2.09 -0.22,-4.01 -0.56,-1.7 -1.01,-2.46 -1.21,-5 -0.36,-4.69 -0.63,-4.19 -0.81,-6.4 -0.12,-1.5 -0.17,-2.32 -0.76,-2.26 -0.62,0.06 -0.65,0.31 -0.61,0.97 0.13,2.66 -0.36,4.44 -0.99,9.12 -0.17,1.28 -0.58,1.8 -0.97,2.99 -0.83,2.53 -0.83,2.49 -0.51,3.99 0.46,2.21 0.73,2.56 0.68,4.14 -0.04,1.34 0.05,1.63 -0.24,2.33 -0.67,1.64 -1.46,6.59 -1.09,8.33 0.1,0.49 0.19,1.09 0.19,1.35 0,0.26 0.11,0.85 0.24,1.31 0.27,0.97 0.21,1.32 -0.34,1.82 -0.29,0.27 -0.34,0.41 -0.41,1.3 -0.07,0.91 -0.11,1.02 -0.43,1.32 -0.28,0.26 -0.47,0.32 -0.92,0.32 -0.31,0 -0.6,-0.04 -0.65,-0.08 z"
       id="fig-front"
       sodipodi:nodetypes="sccssssssssscssssssssssssssssssscsscssssssssssssssssssssssscssssssssscsssssssscsssssssscsssssscssssssssssssssssssssssssssssss" /><path
       style="opacity:1;fill:#1a1a1a;stroke:none;stroke-width:0.447383;stroke-linecap:round;stroke-linejoin:round;paint-order:stroke fill markers"
       d="m 50.44,87.84 c -0.16,-0.05 -0.61,-0.29 -1,-0.53 -0.39,-0.23 -0.89,-0.46 -1.12,-0.5 -0.91,-0.16 -1.66,-0.81 -1.42,-1.25 0.07,-0.12 0.72,-0.5 1.23,-0.77 1.65,-0.86 1.78,-0.85 1.77,-3.29 -0.01,-1.16 -0.08,-1.59 -0.67,-4.02 -1.01,-4.15 -1.56,-5.53 -1.55,-7.16 0,-1.72 0.31,-2.58 0.9,-4.68 0.62,-2.18 0.26,-3.11 -0.27,-5 -0.49,-1.74 -0.98,-3.88 -1.16,-5.52 -0.18,-1.68 0.02,-6.07 0.28,-8.01 0.27,-2 1.04,-4.85 1.43,-6.51 0.76,-3.26 0.81,-6.18 -0.2,-8.75 -0.37,-0.96 -0.66,-1.72 -0.72,-3.51 -0.43,1.74 -0.75,2.82 -1.28,3.86 -0.33,0.66 -0.35,0.78 -0.35,2.1 0,2.25 -0.22,3.16 -1.51,6.12 -0.9,2.08 -1.14,2.85 -1.02,3.35 0.04,0.18 0.28,0.67 0.53,1.1 0.39,0.66 0.47,0.93 0.58,1.89 0.27,2.36 0.27,2.35 0.07,2.43 -0.35,0.13 -0.61,-0.16 -0.91,-1.03 -0.16,-0.48 -0.35,-0.87 -0.41,-0.87 -0.15,0 -0.22,0.8 -0.12,1.48 0.07,0.44 0.19,0.64 0.73,1.15 0.36,0.34 0.63,0.69 0.6,0.77 -0.08,0.24 -0.65,0.24 -1.3,0.01 -0.76,-0.27 -1.48,-0.9 -2.11,-1.85 l -0.49,-0.73 0.08,-0.95 c 0.04,-0.52 0.13,-1.29 0.2,-1.72 0.07,-0.42 -0.02,-2.91 0.03,-5.42 0.1,-5.14 0.08,-5.26 0.96,-6.9 0.45,-0.84 0.42,-1.38 0.49,-2.88 0.09,-1.88 0.55,-2.6 0.93,-3.72 0.24,-0.73 0.29,-1.09 0.29,-2.37 0,-1.69 0.1,-2.26 0.55,-3.18 0.57,-1.16 1.96,-1.68 3.66,-2.18 0.36,-0.1 1.67,-0.69 2.92,-1.31 2.46,-1.22 2.35,-1.65 2.57,-2.65 0.22,-0.96 -0.19,-3.02 -0.6,-3.02 -0.24,0 -0.61,-0.71 -0.83,-1.61 -0.18,-0.72 -0.08,-1.23 0.23,-1.23 0.19,0 0.23,-0.14 0.3,-1.07 0.2,-2.71 1.43,-3.9 3.85,-3.75 2.01,0.12 3.1,1.37 3.28,3.73 0.07,0.95 0.11,1.09 0.3,1.09 0.45,0 0.44,1.17 -0.03,2.25 -0.17,0.39 -0.32,0.59 -0.46,0.59 -0.16,0 -0.25,0.19 -0.4,0.76 -0.39,1.56 -0.16,2.93 0.59,3.46 0.61,0.43 4.12,2.51 4.97,2.79 1.14,0.37 1.87,0.38 2.49,0.95 1.11,1.02 1.89,2.33 1.89,4.63 0,1.1 -0.01,1.61 0.17,2.07 0.36,0.92 1,2.03 1.08,3.69 0.07,1.52 -0.59,1.73 -0.07,2.78 0.89,1.79 1.66,1.83 1.76,6.95 0.06,3.04 -0.61,5.1 -0.48,6.01 0.28,2 0.26,2.21 -0.23,2.94 -0.67,0.99 -1.23,1.48 -2.02,1.77 -0.86,0.31 -1.21,0.33 -1.31,0.06 -0.05,-0.14 0.08,-0.34 0.46,-0.68 0.67,-0.6 0.77,-0.79 0.86,-1.67 0.11,-1.1 -0.28,-1.38 -0.53,-0.37 -0.23,0.88 -0.37,1.15 -0.68,1.23 -0.52,0.13 -0.63,-0.36 -0.33,-1.5 0.1,-0.36 0.18,-0.95 0.18,-1.32 0,-0.54 0.08,-0.83 0.43,-1.48 0.8,-1.5 1.1,-1.72 -0.06,-4.35 -1.38,-3.14 -1.91,-3.96 -1.91,-6.16 0,-1.23 -0.03,-1.4 -0.35,-2.12 -0.48,-1.06 -0.62,-2.84 -1.03,-4.44 -0.11,1.27 -0.17,1.98 -0.73,3.51 -1.12,2.42 -0.93,5.23 -0.59,7.84 0.37,2.88 0.89,3.41 1.21,4.92 0.59,2.75 0.96,4.96 0.96,7.86 0,3.72 -0.15,5.32 -1.28,9.39 -0.26,0.95 -0.99,2.5 -0.5,4.34 0.68,2.57 1.15,2.98 1.15,4.69 0,1.82 -0.23,1.64 -1.46,7.03 -0.38,1.66 -0.94,3.31 -0.98,3.67 -0.09,0.74 0.2,2.62 0.45,3.01 0.09,0.13 0.49,0.43 0.89,0.66 1.25,0.71 1.68,0.67 1.72,0.94 0.06,0.4 -0.34,0.79 -1.21,1.08 -0.43,0.14 -1.03,0.4 -1.32,0.58 -0.81,0.5 -1.35,0.63 -2.29,0.56 -0.72,-0.05 -1.06,-0.14 -1.3,-0.41 -0.31,-0.36 -0.45,-0.87 -0.23,-1.94 0.12,-0.58 0.39,-0.84 0.21,-1.57 -0.21,-0.86 -0.37,-0.93 -0.09,-2.1 0.24,-0.99 0.22,-1.41 0.2,-2.86 -0.02,-2 -0.73,-4.72 -1.15,-5.95 -0.61,-1.79 -0.31,-3.73 0.27,-6.15 0.42,-1.73 -0.16,-1.81 -0.64,-3.33 -0.57,-1.81 -0.59,-3.31 -0.68,-4.45 -0.13,-1.7 -0.33,-2.88 -0.73,-4.56 -0.45,-1.86 -0.28,-3.83 -0.52,-4.52 -0.24,0.92 -1.16,6.93 -1.35,8.57 -0.19,1.86 -0.08,2.99 -0.68,5.01 -0.45,1.52 -0.97,2.03 -0.74,3.17 0.18,0.9 0.66,2.03 0.7,2.59 0.08,1.15 0.05,2.87 -0.27,3.68 -0.42,1.08 -1.12,3.46 -1.13,5.69 -0.01,1.81 -0.26,2.28 -0.01,3.29 0.28,1.15 0.28,1.16 0.07,1.87 -0.19,0.63 -0.2,0.82 -0.08,1.63 0.2,1.32 0.37,1.59 0.04,1.97 -0.26,0.3 -0.55,0.36 -1.4,0.39 -0.51,0.01 -1.06,-0.02 -1.22,-0.07 z"
       id="fig-back"
       sodipodi:nodetypes="csscscccsssssscssscsscssssccsccscscsccsssssssscssssssssscssssscscsscccssccssscsssccssssssssccssscsscssscscccssscc" /><path
       style="opacity:1;fill:#ffffff;stroke:none;stroke-width:1;stroke-linecap:round;stroke-linejoin:round;paint-order:stroke fill markers"
       d="m 12.7696,17.860202 c 1.528867,-0.59633 2.865521,-1.21072 4.417517,-1.82948 0.365348,-0.14565 -0.118618,0.79556 -0.312348,1.13785 -0.445637,0.78737 -1.012656,1.68682 -1.8741,1.96334 -0.41802,0.13419 -0.910673,-0.0314 -1.294021,-0.24542 -0.404489,-0.22579 -1.368622,-0.85795 -0.937048,-1.02629 z"
       id="trapezius1"
       sodipodi:nodetypes="ssssss" /><path
       style="opacity:1;fill:#ffffff;stroke:none;stroke-width:1;stroke-linecap:round;stroke-linejoin:round;paint-order:stroke fill markers"
       d="m 26.66916,17.860202 c -1.216514,-0.41784 -2.93245,-1.09917 -4.417514,-1.82948 -0.352944,-0.17356 0.118618,0.79556 0.312348,1.13785 0.445637,0.78737 1.012656,1.68682 1.8741,1.96334 0.41802,0.13419 0.910673,-0.0314 1.294021,-0.24542 0.404485,-0.22579 1.375165,-0.87581 0.937045,-1.02629 z"
       id="trapezius2"
       sodipodi:nodetypes="ssssss" /><path
       style="opacity:1;fill:#ffffff;stroke:none;stroke-width:0.982086;stroke-linecap:round;stroke-linejoin:round;paint-order:stroke fill markers"
       d="m 7.5057998,21.072942 c 0.502905,-1.32496 2.237925,-2.14182 3.3138522,-2.36493 1.075924,-0.22311 1.097442,-0.24542 1.097442,-0.24542 0,0 1.506297,0.15617 0.968333,1.42789 -0.537963,1.27171 -1.226554,3.36891 -2.108812,3.79281 -0.8822592,0.42391 -3.3353702,2.25338 -3.6796662,0.98167 -0.344295,-1.2717 -0.07765,-2.31028 0.408851,-3.59202 z"
       id="deltoids1"
       sodipodi:nodetypes="sscssss" /><path
       style="opacity:1;fill:#ffffff;stroke:none;stroke-width:0.971179;stroke-linecap:round;stroke-linejoin:round;paint-order:stroke fill markers"
       d="m 32.12744,21.050632 c -0.49179,-1.32496 -2.18849,-2.14183 -3.24065,-2.36493 -1.05216,-0.22311 -1.0732,-0.24542 -1.0732,-0.24542 0,0 -1.47302,0.15617 -0.94694,1.42789 0.52608,1.2717 1.19946,3.36891 2.06223,3.79281 0.86277,0.42391 3.26169,2.25338 3.59838,0.98167 0.33669,-1.27171 0.0759,-2.31028 -0.39982,-3.59202 z"
       id="deltoids2"
       sodipodi:nodetypes="sscssss" /><path
       style="opacity:1;fill:#ffffff;stroke:none;stroke-width:0.0829905;stroke-linecap:round;stroke-linejoin:round;paint-order:stroke fill markers"
       d="m 15.078756,27.890802 c -1.165997,-0.14082 -2.063879,-1.01075 -2.670552,-1.92765 -0.359878,-0.54026 -0.674072,-1.11429 -0.876098,-1.72854 0.103949,-0.57211 0.483346,-1.04555 0.689608,-1.58231 0.496186,-0.98418 1.01924,-1.9677 1.686418,-2.85202 0.405076,-0.1851 0.882998,0.017 1.316343,-0.0195 0.921117,0.0555 1.84723,0.0311 2.766174,0.11036 0.854309,0.0933 1.40443,0.88241 1.595114,1.63332 0.172282,0.59158 0.06085,1.20128 -0.02688,1.7946 -0.105149,0.9894 0.01112,1.99846 -0.194891,2.97691 -0.231985,0.78893 -1.009762,1.36282 -1.848378,1.41582 -0.803735,0.13383 -1.620631,0.21549 -2.436858,0.17898 z"
       id="pectorals1" /><path
       style="opacity:1;fill:#ffffff;stroke:none;stroke-width:0.0829905;stroke-linecap:round;stroke-linejoin:round;paint-order:stroke fill markers"
       d="m 23.724153,27.867222 c -0.153387,-0.008 -0.329084,-0.0245 -0.390438,-0.0371 -0.06135,-0.0126 -0.232032,-0.0297 -0.379283,-0.0381 -0.147251,-0.009 -0.317926,-0.0276 -0.37928,-0.0428 -0.06135,-0.0152 -0.176813,-0.0344 -0.256574,-0.0427 -0.07976,-0.009 -0.175139,-0.0278 -0.211953,-0.0434 -0.03681,-0.0156 -0.116295,-0.0352 -0.17663,-0.0436 -0.06034,-0.009 -0.130615,-0.0278 -0.156176,-0.0433 -0.02556,-0.0155 -0.08312,-0.0343 -0.127897,-0.0419 -0.04478,-0.008 -0.0937,-0.0281 -0.108709,-0.0456 -0.015,-0.0175 -0.04184,-0.0319 -0.05962,-0.0319 -0.04331,0 -0.217607,-0.0977 -0.34148,-0.19142 -0.127053,-0.0961 -0.379282,-0.34159 -0.379282,-0.36911 0,-0.0114 -0.01307,-0.0286 -0.02906,-0.0381 -0.0348,-0.0207 -0.101454,-0.12549 -0.182821,-0.28742 -0.03285,-0.0654 -0.07893,-0.15482 -0.102407,-0.19877 -0.02347,-0.044 -0.04275,-0.0974 -0.04282,-0.11886 -7.6e-5,-0.0214 -0.01699,-0.0681 -0.03758,-0.10378 -0.0319,-0.0552 -0.03976,-0.16889 -0.05306,-0.76717 -0.0086,-0.38629 -0.02651,-0.75584 -0.03983,-0.82122 -0.01331,-0.0654 -0.0345,-0.28903 -0.04707,-0.49704 -0.01257,-0.208 -0.03231,-0.41222 -0.04385,-0.45383 -0.01154,-0.0417 -0.03158,-0.25554 -0.04453,-0.47543 -0.01294,-0.2199 -0.03427,-0.43666 -0.04737,-0.48172 -0.04994,-0.17171 0.01733,-0.90704 0.102756,-1.12331 0.0177,-0.0448 0.03219,-0.10331 0.03219,-0.12999 0,-0.0266 0.02008,-0.0848 0.04462,-0.12915 0.02455,-0.0444 0.04469,-0.0977 0.04477,-0.11854 8e-5,-0.0208 0.02008,-0.067 0.04447,-0.10273 0.02437,-0.0357 0.04439,-0.0779 0.04447,-0.0939 8.2e-5,-0.016 0.02024,-0.0538 0.04477,-0.084 0.02455,-0.0302 0.04462,-0.0726 0.04462,-0.0941 0,-0.0216 0.01265,-0.047 0.02811,-0.0565 0.01545,-0.01 0.05705,-0.061 0.09242,-0.11453 0.07258,-0.10974 0.06945,-0.10614 0.275191,-0.31596 0.165285,-0.16856 0.347572,-0.30116 0.445211,-0.32386 0.03446,-0.008 0.09008,-0.028 0.123614,-0.0443 0.09205,-0.045 1.060267,-0.1103 1.868913,-0.12622 0.386533,-0.008 0.773065,-0.0228 0.858962,-0.0337 0.08589,-0.011 0.336891,-0.0301 0.557766,-0.0426 0.220876,-0.0125 0.45826,-0.037 0.527523,-0.0543 0.06926,-0.0173 0.19626,-0.0316 0.282223,-0.0316 h 0.156292 l 0.113916,0.12073 c 0.0627,0.0665 0.10809,0.12985 0.10098,0.141 -0.007,0.0111 -0.005,0.0178 0.005,0.0147 0.0272,-0.008 0.11879,0.0744 0.11879,0.10722 0,0.0156 0.0144,0.0337 0.0321,0.0402 0.0177,0.007 0.0387,0.041 0.0467,0.0764 0.008,0.0355 0.0287,0.0697 0.046,0.0761 0.0173,0.007 0.0314,0.024 0.0314,0.0391 0,0.0151 0.0156,0.04 0.0348,0.0554 0.0191,0.0154 0.0487,0.0603 0.0658,0.0999 0.0171,0.0396 0.0416,0.072 0.0545,0.072 0.0129,0 0.0235,0.0121 0.0235,0.027 10e-6,0.0149 0.0402,0.083 0.0892,0.15151 0.0491,0.0685 0.0892,0.13342 0.0892,0.14432 0,0.011 0.0134,0.0327 0.0297,0.0485 0.0342,0.0331 0.0871,0.12303 0.14055,0.23909 0.0205,0.0446 0.0451,0.0811 0.0545,0.0811 0.009,0 0.0236,0.0285 0.0315,0.0633 0.008,0.0349 0.0283,0.0745 0.0452,0.0881 0.017,0.0137 0.0422,0.0581 0.0561,0.0987 0.0139,0.0407 0.0336,0.0739 0.044,0.0739 0.0103,0 0.0254,0.0291 0.0334,0.0646 0.008,0.0356 0.0243,0.0704 0.0362,0.0775 0.0119,0.007 0.0373,0.051 0.0565,0.0975 0.0192,0.0465 0.0439,0.0846 0.0548,0.0846 0.0109,0 0.0199,0.0181 0.0199,0.0403 0,0.0222 0.0195,0.0642 0.0432,0.0936 0.0238,0.0292 0.0499,0.0788 0.058,0.11008 0.008,0.0313 0.0288,0.0682 0.046,0.082 0.0172,0.0138 0.0313,0.0421 0.0313,0.0628 0,0.0207 0.0201,0.0624 0.0446,0.0926 0.0245,0.0302 0.0446,0.0692 0.0446,0.0864 0,0.0173 0.0201,0.0562 0.0446,0.0864 0.0246,0.0302 0.0446,0.0692 0.0446,0.0864 0,0.0173 0.0186,0.0547 0.0412,0.083 0.0227,0.0284 0.0483,0.0794 0.0569,0.11358 0.009,0.0341 0.0302,0.0761 0.048,0.0934 0.0178,0.0172 0.0324,0.0477 0.0325,0.0676 8e-5,0.0199 0.0201,0.0655 0.0445,0.1011 0.0244,0.0356 0.0444,0.0807 0.0445,0.1 9e-5,0.0194 0.0145,0.0468 0.0322,0.0609 0.0176,0.0141 0.0383,0.0536 0.0461,0.0876 0.008,0.034 0.0278,0.0729 0.0446,0.0864 0.0168,0.0136 0.0369,0.0524 0.0446,0.0864 0.008,0.034 0.0274,0.0726 0.0437,0.0857 0.0163,0.0132 0.036,0.0566 0.0438,0.0966 0.008,0.04 0.0289,0.0846 0.0469,0.0991 0.0181,0.0145 0.0329,0.0426 0.0329,0.0624 0,0.0198 0.0218,0.0745 0.0485,0.12161 0.0403,0.0712 0.0485,0.12081 0.0486,0.29401 8e-5,0.16212 -0.008,0.21605 -0.0355,0.2429 -0.0196,0.019 -0.0426,0.0662 -0.0511,0.10496 -0.008,0.0388 -0.0283,0.0851 -0.044,0.10287 -0.0157,0.0178 -0.0353,0.0633 -0.0436,0.10116 -0.008,0.0378 -0.0288,0.0798 -0.0457,0.0934 -0.0168,0.0136 -0.0371,0.0531 -0.045,0.088 -0.008,0.0349 -0.0221,0.0633 -0.0315,0.0633 -0.009,0 -0.0334,0.0365 -0.0532,0.0811 -0.0198,0.0446 -0.0465,0.0956 -0.0592,0.11346 -0.0127,0.0178 -0.0334,0.0568 -0.0459,0.0864 -0.0126,0.0297 -0.047,0.0929 -0.0765,0.14046 -0.0295,0.0476 -0.0684,0.11686 -0.0864,0.15405 -0.018,0.0372 -0.0438,0.0742 -0.0573,0.0823 -0.0135,0.008 -0.0246,0.0336 -0.0246,0.0567 0,0.0231 -0.008,0.0419 -0.0178,0.0419 -0.01,0 -0.0721,0.0802 -0.13834,0.17828 -0.0663,0.0981 -0.12601,0.18315 -0.13275,0.1891 -0.0378,0.0333 -0.15728,0.19517 -0.15728,0.21304 0,0.0116 -0.009,0.0243 -0.0193,0.0283 -0.0157,0.006 -0.1331,0.1324 -0.39008,0.42059 -0.1169,0.13109 -0.25542,0.2592 -0.41613,0.38483 -0.1043,0.0816 -0.19767,0.16142 -0.20748,0.17748 -0.01,0.0161 -0.0269,0.0292 -0.0379,0.0292 -0.0251,0 -0.21729,0.12466 -0.23501,0.15242 -0.007,0.0112 -0.03131,0.0204 -0.05363,0.0204 -0.0223,0 -0.05254,0.0139 -0.06716,0.031 -0.01463,0.017 -0.05532,0.0371 -0.09043,0.0446 -0.03512,0.008 -0.07516,0.0268 -0.08899,0.0429 -0.01384,0.0162 -0.06723,0.036 -0.118671,0.0443 -0.05145,0.008 -0.118636,0.0276 -0.149315,0.0431 -0.229859,0.11622 -0.725609,0.15588 -1.472504,0.11782 z"
       id="pectorals2" /><path
       style="opacity:1;fill:#ffffff;stroke:none;stroke-width:0.238504;stroke-linecap:round;stroke-linejoin:round;paint-order:stroke fill markers"
       d="m 15.895535,31.554362 c -0.352777,-0.38981 -0.295674,-1.28745 0.13997,-2.20026 0.242713,-0.50856 0.473887,-0.67745 1.238822,-0.90504 0.34191,-0.10173 0.863028,-0.2723 1.158038,-0.37904 0.573104,-0.20737 0.891564,-0.24501 0.995503,-0.11769 0.129683,0.15886 0.266581,0.77578 0.266581,1.20132 0,0.77684 -0.27609,1.53291 -0.648988,1.77724 -0.07942,0.052 -0.467792,0.13972 -0.863058,0.19485 -0.395264,0.0551 -0.962171,0.18584 -1.259792,0.29046 -0.736714,0.25897 -0.898097,0.28068 -1.027076,0.13816 z"
       id="abdominals1" /><path
       style="opacity:1;fill:#ffffff;stroke:none;stroke-width:0.238504;stroke-linecap:round;stroke-linejoin:round;paint-order:stroke fill markers"
       d="m 16.090218,34.233212 c -0.363365,-0.33859 -0.409673,-1.19485 -0.09895,-1.82959 0.237188,-0.48452 0.758698,-0.71702 2.0329,-0.90632 0.974457,-0.14477 1.331118,-0.0566 1.543139,0.38134 0.247539,0.51135 0.137703,1.93458 -0.168941,2.18907 -0.134689,0.11178 -1.134372,0.23854 -2.228086,0.28251 -0.906115,0.0364 -0.916617,0.0353 -1.080066,-0.11701 z"
       id="abdominals3" /><path
       style="opacity:1;fill:#ffffff;stroke:none;stroke-width:0.238504;stroke-linecap:round;stroke-linejoin:round;paint-order:stroke fill markers"
       d="m 17.990638,37.296612 c -0.958765,-0.0967 -1.673664,-0.30933 -1.903195,-0.56608 -0.315407,-0.35282 -0.389014,-1.30538 -0.134591,-1.74173 l 0.11979,-0.20544 0.722357,-0.0445 c 0.397296,-0.0245 0.895065,-0.0742 1.106152,-0.11043 0.611674,-0.10513 1.163521,-0.084 1.388557,0.0533 0.355314,0.21667 0.50796,1.11545 0.306909,1.80704 -0.21598,0.74294 -0.555588,0.91377 -1.605979,0.80785 z"
       id="abdominals5" /><path
       style="opacity:1;fill:#ffffff;stroke:none;stroke-width:0.238504;stroke-linecap:round;stroke-linejoin:round;paint-order:stroke fill markers"
       d="m 19.031856,44.234792 c -0.983118,-0.29823 -1.694924,-1.36618 -2.553214,-3.83066 -0.414025,-1.18881 -0.617807,-2.72708 -0.381129,-2.87697 0.13861,-0.0878 0.721876,-0.0751 1.729256,0.0377 1.036743,0.11606 1.32198,0.22558 1.659202,0.63712 l 0.231962,0.28308 0.04701,0.92573 c 0.02585,0.50915 0.04897,1.82734 0.05136,2.92929 l 0.0044,2.00356 -0.236641,-0.007 c -0.130151,-0.004 -0.378624,-0.0496 -0.552162,-0.10229 z"
       id="abdominals7" /><path
       style="opacity:1;fill:#ffffff;stroke:none;stroke-width:0.238504;stroke-linecap:round;stroke-linejoin:round;paint-order:stroke fill markers"
       d="m 20.05088,44.313722 c -0.01685,-0.0439 -0.0186,-1.32376 -0.0038,-2.84405 0.02675,-2.7584 0.02712,-2.76486 0.178589,-3.09571 0.221689,-0.48423 0.489934,-0.64048 1.239602,-0.72207 0.327599,-0.0357 0.766019,-0.0898 0.974262,-0.12039 0.585009,-0.0858 1.277723,-0.0793 1.337238,0.0127 0.02808,0.0434 0.0459,0.3363 0.0396,0.65092 -0.03255,1.62579 -1.342506,4.84803 -2.30628,5.67299 -0.406326,0.34779 -1.382326,0.64588 -1.459164,0.44564 z"
       id="abdominals8" /><path
       style="opacity:1;fill:#ffffff;stroke:none;stroke-width:0.238504;stroke-linecap:round;stroke-linejoin:round;paint-order:stroke fill markers"
       d="m 20.735669,37.250572 c -0.267996,-0.11829 -0.38323,-0.27182 -0.498689,-0.66442 -0.208426,-0.70871 -0.06429,-1.65668 0.291785,-1.91905 0.195847,-0.14432 0.662675,-0.16019 1.450284,-0.0493 0.253238,0.0357 0.72875,0.0838 1.056693,0.10712 0.535244,0.038 0.613746,0.0598 0.767144,0.21317 0.296084,0.29609 0.32498,1.11737 0.05774,1.6412 -0.16777,0.32885 -0.494273,0.46633 -1.488892,0.62689 -0.941732,0.15203 -1.366174,0.16355 -1.63607,0.0444 z"
       id="abdominals6" /><path
       style="opacity:1;fill:#ffffff;stroke:none;stroke-width:0.238504;stroke-linecap:round;stroke-linejoin:round;paint-order:stroke fill markers"
       d="m 21.272054,34.304402 c -0.733444,-0.0789 -0.873242,-0.14598 -1.031232,-0.49455 -0.1049,-0.23144 -0.131329,-0.41976 -0.133493,-0.95117 -0.0057,-1.40388 0.336581,-1.63291 1.990166,-1.33158 0.79029,0.14401 1.353953,0.34695 1.54939,0.55783 0.198662,0.21436 0.338651,0.73916 0.338651,1.26955 0,0.8695 -0.150093,0.98243 -1.32519,0.99704 -0.468548,0.006 -1.093279,-0.0154 -1.388292,-0.0471 z"
       id="abdominals4" /><path
       style="opacity:1;fill:#ffffff;stroke:none;stroke-width:0.238504;stroke-linecap:round;stroke-linejoin:round;paint-order:stroke fill markers"
       d="m 23.114956,31.440872 c -0.357341,-0.1165 -0.896882,-0.24317 -1.198978,-0.2815 -0.900493,-0.11424 -1.115589,-0.18168 -1.360503,-0.4266 -0.122571,-0.12257 -0.267058,-0.35257 -0.321077,-0.51111 -0.136893,-0.40176 -0.133126,-1.52792 0.0065,-1.94257 0.114769,-0.34083 0.173429,-0.40322 0.380442,-0.40467 0.128117,-8e-4 1.026001,0.2573 1.31331,0.37766 0.06941,0.0291 0.38178,0.12853 0.694145,0.22099 0.312367,0.0925 0.639164,0.22965 0.72622,0.30486 0.443561,0.38319 0.696836,1.05769 0.741468,1.97462 0.02871,0.58984 0.0208,0.64919 -0.103028,0.77302 -0.07377,0.0738 -0.155427,0.13255 -0.181457,0.13063 -0.02604,-0.002 -0.339699,-0.0988 -0.697042,-0.21533 z"
       id="abdominals2" /><path
       style="opacity:1;fill:#ffffff;stroke:none;stroke-width:0.408749;stroke-linecap:round;stroke-linejoin:round;paint-order:stroke fill markers"
       d="m 25.057744,35.348072 c -0.160296,-1.95304 -0.459854,-4.11068 -0.121301,-5.73714 0.03594,-0.0459 0.337638,0.16217 0.670447,0.46226 0.33281,0.30011 0.76467,0.61118 0.95969,0.69128 0.40367,0.16584 0.50938,0.43588 0.36287,0.92721 -1.413484,5.64177 0.18764,4.35066 -0.55906,7.64344 -0.38076,1.67905 -0.815168,2.06188 -0.969747,2.06188 -0.572532,-1.00329 -0.08253,-2.87658 -0.342899,-6.04893 z"
       id="oblique2"
       sodipodi:nodetypes="scscssss" /><path
       style="opacity:1;fill:#ffffff;stroke:none;stroke-width:0.408749;stroke-linecap:round;stroke-linejoin:round;paint-order:stroke fill markers"
       d="m 14.846968,35.348072 c 0.160296,-1.95304 0.459854,-4.11068 0.121301,-5.73714 -0.03594,-0.0459 -0.337638,0.16217 -0.670447,0.46226 -0.332807,0.30011 -0.764668,0.61118 -0.959695,0.69128 -0.403666,0.16584 -0.509377,0.43588 -0.362865,0.92721 1.413484,5.64177 -0.187645,4.35066 0.559062,7.64344 0.380756,1.67905 0.815166,2.06188 0.969745,2.06188 0.572532,-1.00329 0.08253,-2.87658 0.342899,-6.04893 z"
       id="oblique1"
       sodipodi:nodetypes="scscssss" /><path
       style="opacity:1;fill:#ffffff;stroke:none;stroke-width:0.1544;stroke-linecap:round;stroke-linejoin:round;paint-order:stroke fill markers"
       d="m 7.7430188,32.623722 c -0.324417,-0.13084 -0.59079,-0.3689 -1.04147,-0.93076 l -0.402052,-0.50123 8.87e-4,-0.56379 c 6.66e-4,-0.51962 0.07409,-1.80678 0.130065,-2.28172 0.02938,-0.24926 0.0855,-0.59395 0.1326,-0.81434 0.01967,-0.092 0.05259,-0.24764 0.07316,-0.34581 0.07927,-0.37828 0.126363,-0.55936 0.156103,-0.60016 0.01699,-0.0233 0.03089,-0.0687 0.03089,-0.10088 0,-0.052 0.106107,-0.36707 0.184646,-0.54836 0.02095,-0.0484 0.105562,-0.0704 0.305527,-0.0795 0.378199,-0.0172 0.753882,-0.18763 1.398531,-0.63437 0.643367,-0.44585 1.068824,-0.64438 1.4917122,-0.69607 l 0.255669,-0.0312 -0.01364,0.84332 c -0.01251,0.77437 -0.02033,0.85618 -0.09559,1.00079 -0.08197,0.1575 -0.142535,0.47827 -0.332571,1.76124 -0.1857162,1.25382 -0.4782132,2.4673 -0.8765752,3.63664 -0.08779,0.25769 -0.174658,0.51992 -0.193048,0.58273 -0.09887,0.33769 -0.727411,0.49605 -1.20475,0.30354 z"
       id="biceps1" /><path
       style="opacity:1;fill:#ffffff;stroke:none;stroke-width:0.1544;stroke-linecap:round;stroke-linejoin:round;paint-order:stroke fill markers"
       d="m 31.95116,32.623722 c 0.32442,-0.13084 0.59079,-0.3689 1.04147,-0.93076 l 0.40205,-0.50123 -8.8e-4,-0.56379 c -6.7e-4,-0.51962 -0.0741,-1.80678 -0.13007,-2.28172 -0.0294,-0.24926 -0.0855,-0.59395 -0.1326,-0.81434 -0.0197,-0.092 -0.0526,-0.24764 -0.0732,-0.34581 -0.0793,-0.37828 -0.12636,-0.55936 -0.1561,-0.60016 -0.017,-0.0233 -0.0309,-0.0687 -0.0309,-0.10088 0,-0.052 -0.10611,-0.36707 -0.18465,-0.54836 -0.0209,-0.0484 -0.10556,-0.0704 -0.30552,-0.0795 -0.3782,-0.0172 -0.75389,-0.18763 -1.39853,-0.63437 -0.64337,-0.44585 -1.06883,-0.64438 -1.49172,-0.69607 l -0.25567,-0.0312 0.0136,0.84332 c 0.0125,0.77437 0.0203,0.85618 0.0956,1.00079 0.082,0.1575 0.14254,0.47827 0.33258,1.76124 0.18571,1.25382 0.47821,2.4673 0.87657,3.63664 0.0878,0.25769 0.17466,0.51992 0.19305,0.58273 0.0989,0.33769 0.72741,0.49605 1.20475,0.30354 z"
       id="biceps2" /><path
       style="opacity:1;fill:#ffffff;stroke:none;stroke-width:0.168648;stroke-linecap:round;stroke-linejoin:round;paint-order:stroke fill markers"
       d="m 4.9282538,39.200382 c -8.07e-4,-2.00437 -0.203645,-3.98474 0.586324,-5.85656 0.226103,-0.41669 0.270057,-1.33631 0.7309,-1.22138 1.559268,0.38888 1.491561,1.91282 1.307044,2.73851 -0.134653,0.63557 -0.396188,1.40114 -0.558206,2.03027 -0.723414,1.50402 -1.42686,4.75032 -1.936015,6.3583 -0.01489,0.047 -0.145291,0.0495 -0.147969,2.5e-4 -0.105347,-1.93744 0.01792,-4.04939 0.01792,-4.04939 0,0 2e-6,0 2e-6,0 z"
       id="forearms1"
       sodipodi:nodetypes="sssssssss" /><path
       style="opacity:1;fill:#ffffff;stroke:none;stroke-width:0.268853;stroke-linecap:round;stroke-linejoin:round;paint-order:stroke fill markers"
       d="m 15.810601,48.473902 c -0.712782,-1.57429 -0.98662,-2.65311 -1.095038,-3.28707 -0.06144,-0.35925 0.190163,-1.48167 0.850669,-1.61997 0.663533,-0.13893 1.603679,1.54138 2.495697,2.20026 0.03682,0.0272 -0.439552,0.36614 -0.723176,0.63427 -0.949471,0.86538 -0.787331,3.70874 -1.528152,2.07251 z"
       id="ileopsoas1"
       sodipodi:nodetypes="ssssss" /><path
       style="opacity:1;fill:#ffffff;stroke:none;stroke-width:1.09933;stroke-linecap:round;stroke-linejoin:round;paint-order:stroke fill markers"
       d="m 16.745552,50.589992 c 0.539265,-0.93705 0.91675,-2.67728 1.563865,-2.72191 0.647118,-0.0446 0.485337,2.85577 0.377486,3.61434 -0.107849,0.75856 -0.808896,5.89002 -1.078528,6.69321 -0.269632,0.80318 -0.701043,-2.85578 -0.916749,-3.7482 -0.215704,-0.89243 -0.412659,-3.02668 0.05393,-3.83744 z"
       id="adductors1"
       sodipodi:nodetypes="scssss" /><path
       style="opacity:1;fill:#ffffff;stroke:none;stroke-width:0.268853;stroke-linecap:round;stroke-linejoin:round;paint-order:stroke fill markers"
       d="m 24.153521,48.518532 c 0.712782,-1.57429 0.98662,-2.65311 1.095038,-3.28707 0.06144,-0.35925 -0.190163,-1.48167 -0.850669,-1.61997 -0.663533,-0.13893 -1.603679,1.54138 -2.495697,2.20026 -0.03682,0.0272 0.439552,0.36614 0.723176,0.63427 0.949471,0.86538 0.787331,3.70874 1.528152,2.07251 z"
       id="ileopsoas2"
       sodipodi:nodetypes="ssssss" /><path
       style="opacity:1;fill:#ffffff;stroke:none;stroke-width:1.09933;stroke-linecap:round;stroke-linejoin:round;paint-order:stroke fill markers"
       d="m 23.173949,50.589992 c -0.539265,-0.93705 -0.91675,-2.67728 -1.563865,-2.72191 -0.647118,-0.0446 -0.485337,2.85577 -0.377486,3.61434 0.107849,0.75856 0.808896,5.89002 1.078528,6.69321 0.269632,0.80318 0.701043,-2.85578 0.916749,-3.7482 0.215704,-0.89243 0.412659,-3.02668 -0.05393,-3.83744 z"
       id="adductors2"
       sodipodi:nodetypes="scssss" /><path
       style="opacity:1;fill:#ffffff;stroke:none;stroke-width:1;stroke-linecap:round;stroke-linejoin:round;paint-order:stroke fill markers"
       d="m 13.081951,43.361322 c -0.6247,2.00797 -2.364936,10.57527 -1.115536,14.01112 1.249399,3.43585 3.301984,5.30995 3.882061,4.3729 0.580078,-0.93705 0.6247,-0.98167 0.6247,-0.98167 0,0 0.535456,-0.26773 0.312349,-2.09721 -0.223108,-1.82947 -1.561748,-7.76412 -2.097204,-9.37049 -0.535459,-1.60637 -1.60637,-5.93465 -1.60637,-5.93465 z"
       id="quadriceps1" /><path
       style="opacity:1;fill:#ffffff;stroke:none;stroke-width:1;stroke-linecap:round;stroke-linejoin:round;paint-order:stroke fill markers"
       d="m 26.84063,43.361322 c 0.6247,2.00797 2.36494,10.57527 1.11554,14.01112 -1.2494,3.43585 -3.301988,5.30995 -3.882065,4.3729 -0.580078,-0.93705 -0.6247,-0.98167 -0.6247,-0.98167 0,0 -0.535456,-0.26773 -0.312349,-2.09721 0.223108,-1.82947 1.561748,-7.76412 2.097204,-9.37049 0.53546,-1.60637 1.60637,-5.93465 1.60637,-5.93465 z"
       id="quadriceps2" /><path
       style="opacity:1;fill:#00ff00;stroke:none;stroke-width:0.637409;stroke-linecap:round;stroke-linejoin:round;paint-order:stroke fill markers"
       d=""
       id="path181"
       transform="scale(0.26458333)" /><path
       style="opacity:1;fill:#ffffff;stroke:none;stroke-width:0.412358;stroke-linecap:round;stroke-linejoin:round;paint-order:stroke fill markers"
       d="m 12.63306,75.203982 c -0.538579,-1.41196 -1.253854,-4.30107 -1.351181,-5.45776 -0.136908,-1.62702 0.173635,-2.94715 0.935817,-3.97813 0.423617,-0.57302 0.936075,-0.97385 1.167069,-0.91288 0.250764,0.0662 0.31688,0.71023 0.206491,2.0113 -0.03438,0.40537 -0.133515,1.81398 -0.236185,3.35625 -0.07849,1.17915 -0.140685,3.00789 -0.121513,3.57239 0.01197,0.35255 -0.118235,2.40757 -0.155388,2.45211 -0.0181,0.0205 -0.218087,-0.44814 -0.44511,-1.04328 z"
       id="calves1" /><path
       style="opacity:1;fill:#ffffff;stroke:none;stroke-width:0.429879;stroke-linecap:round;stroke-linejoin:round;paint-order:stroke fill markers"
       d="m 15.199747,78.410572 c -0.554644,-2.73296 -0.793075,-5.96139 -0.532525,-7.21026 0.05834,-0.27969 0.257062,-0.95337 0.441575,-1.49705 0.184526,-0.54365 0.430818,-1.44615 0.547331,-2.0055 0.11652,-0.55936 0.229412,-1.08003 0.250885,-1.15703 0.06827,-0.24495 0.399179,0.20792 0.688505,0.94228 0.436809,1.10857 0.359226,2.68204 -0.210952,4.28156 -0.216948,0.60856 -0.435891,1.31661 -0.715572,2.31411 -0.157142,0.56042 -0.198158,1.21614 -0.181505,2.90081 0.01886,1.9063 -0.08573,2.42644 -0.287725,1.43108 z"
       id="calves2" /><path
       style="opacity:1;fill:#ffffff;stroke:none;stroke-width:0.412358;stroke-linecap:round;stroke-linejoin:round;paint-order:stroke fill markers"
       d="m 27.18363,75.203982 c 0.53857,-1.41196 1.25385,-4.30107 1.35118,-5.45776 0.1369,-1.62702 -0.17364,-2.94715 -0.93582,-3.97813 -0.42362,-0.57302 -0.93608,-0.97385 -1.16707,-0.91288 -0.25076,0.0662 -0.31688,0.71023 -0.20649,2.0113 0.0344,0.40537 0.13351,1.81398 0.23618,3.35625 0.0785,1.17915 0.14069,3.00789 0.12152,3.57239 -0.012,0.35255 0.11823,2.40757 0.15539,2.45211 0.0181,0.0205 0.21808,-0.44814 0.44511,-1.04328 z"
       id="calves4" /><path
       style="opacity:1;fill:#ffffff;stroke:none;stroke-width:0.429879;stroke-linecap:round;stroke-linejoin:round;paint-order:stroke fill markers"
       d="m 24.616939,78.410572 c 0.554644,-2.73296 0.793075,-5.96139 0.532525,-7.21026 -0.05834,-0.27969 -0.257062,-0.95337 -0.441575,-1.49705 -0.184526,-0.54365 -0.430818,-1.44615 -0.547331,-2.0055 -0.11652,-0.55936 -0.229412,-1.08003 -0.250885,-1.15703 -0.06827,-0.24495 -0.399179,0.20792 -0.688505,0.94228 -0.436809,1.10857 -0.359226,2.68204 0.210952,4.28156 0.216948,0.60856 0.435891,1.31661 0.715572,2.31411 0.157142,0.56042 0.198158,1.21614 0.181505,2.90081 -0.01886,1.9063 0.08573,2.42644 0.287725,1.43108 z"
       id="calves3" /><path
       style="opacity:1;fill:#ffffff;stroke:none;stroke-width:0.168648;stroke-linecap:round;stroke-linejoin:round;paint-order:stroke fill markers"
       d="m 34.9736,39.200382 c 8e-4,-2.00437 0.20364,-3.98474 -0.58633,-5.85656 -0.2261,-0.41669 -0.27005,-1.33631 -0.7309,-1.22138 -1.55926,0.38888 -1.49156,1.91282 -1.30704,2.73851 0.13465,0.63557 0.39619,1.40114 0.55821,2.03027 0.72341,1.50402 1.42686,4.75032 1.93601,6.3583 0.0149,0.047 0.14529,0.0495 0.14797,2.5e-4 0.10535,-1.93744 -0.0179,-4.04939 -0.0179,-4.04939 0,0 0,0 0,0 z"
       id="forearms2"
       sodipodi:nodetypes="sssssssss" /><path
       style="opacity:1;fill:#ffffff;stroke:none;stroke-width:0.300624;stroke-linecap:round;stroke-linejoin:round;paint-order:stroke fill markers"
       d="m 44.51995,32.566202 c -0.54834,-0.35399 -0.67408,-0.40224 -0.93485,-0.35867 -0.34048,0.0569 -0.34228,0.052 -0.23304,-0.6335 0.0375,-0.23556 -0.11774,-1.06223 -0.0751,-1.79849 0.0803,-1.38708 0.43904,-2.3958 0.61683,-2.95517 0.0873,-0.2746 0.15325,-0.34113 0.43101,-0.43465 0.18037,-0.0607 0.6178,-0.33145 0.97206,-0.60159 0.75728,-0.57748 0.95165,-0.65941 1.07216,-0.45194 0.1988,0.34225 0.70552,2.6546 0.63824,3.957 -0.061,1.18023 -0.41586,2.06679 -0.68328,2.80019 -0.37379,1.02511 -0.78594,1.13405 -1.80398,0.47682 z"
       id="triceps1"
       sodipodi:nodetypes="ssccsssssss" /><path
       style="opacity:1;fill:#ffffff;stroke:none;stroke-width:0.300624;stroke-linecap:round;stroke-linejoin:round;paint-order:stroke fill markers"
       d="m 68.54351,32.534652 c 0.54834,-0.35399 0.67408,-0.40224 0.93485,-0.35867 0.34048,0.0569 0.34228,0.052 0.23304,-0.6335 -0.0375,-0.23556 0.11774,-1.06223 0.0751,-1.79849 -0.0803,-1.38708 -0.43904,-2.3958 -0.61683,-2.95517 -0.0873,-0.2746 -0.15325,-0.34113 -0.43101,-0.43465 -0.18037,-0.0607 -0.6178,-0.33145 -0.97206,-0.6016 -0.75728,-0.57747 -0.95165,-0.6594 -1.07216,-0.45193 -0.1988,0.34225 -0.70552,2.6546 -0.63824,3.957 0.061,1.18023 0.41586,2.06679 0.68328,2.80019 0.37379,1.02511 0.78594,1.13405 1.80398,0.47682 z"
       id="triceps2"
       sodipodi:nodetypes="ssccsssssss" /><path
       style="opacity:1;fill:#ffffff;stroke:none;stroke-width:1;stroke-linecap:round;stroke-linejoin:round;paint-order:stroke fill markers"
       d="m 44.91142,21.257252 c 0.53639,-0.7257 2.61882,-1.79847 3.24987,-1.79847 0.63104,0 0.94656,1.54605 0.44173,2.52417 -0.50484,0.97811 -2.39796,2.58727 -2.93435,2.87124 -0.53638,0.28396 -0.82035,0.15776 -1.10432,0.53638 -0.28397,0.37863 -0.31552,-1.13587 -0.28397,-2.27175 0.0315,-1.13587 0.63104,-1.86157 0.63104,-1.86157 z"
       id="rotator_cuff1" /><path
       style="opacity:1;fill:#ffffff;stroke:none;stroke-width:1;stroke-linecap:round;stroke-linejoin:round;paint-order:stroke fill markers"
       d="m 68.09025,21.257252 c -0.53639,-0.7257 -2.61882,-1.79847 -3.24987,-1.79847 -0.63104,0 -0.94656,1.54605 -0.44173,2.52417 0.50484,0.97811 2.39796,2.58727 2.93435,2.87124 0.53638,0.28396 0.82035,0.15776 1.10432,0.53638 0.28397,0.37863 0.31552,-1.13587 0.28397,-2.27175 -0.0315,-1.13587 -0.63104,-1.86157 -0.63104,-1.86157 z"
       id="rotator_cuff2" /><path
       style="opacity:1;fill:#ffffff;stroke:none;stroke-width:1;stroke-linecap:round;stroke-linejoin:round;paint-order:stroke fill markers"
       d="m 50.02286,18.827742 c 1.57761,-0.7257 3.37607,-1.76692 3.66004,-2.33486 0.28397,-0.56794 0.85191,-3.43918 0.94657,-4.16487 0.0947,-0.7257 0.8519,0.47328 0.94656,2.3664 0.0947,1.89313 -0.18931,3.56539 -0.18931,3.94401 0,0.37863 1.10432,2.52417 0,2.42952 -1.10433,-0.0947 -1.67227,-0.53639 -2.68193,-1.07278 -1.00967,-0.53638 -2.27175,-0.53638 -2.68193,-1.16742 z"
       id="trapezius3" /><path
       style="opacity:1;fill:#ffffff;stroke:none;stroke-width:1;stroke-linecap:round;stroke-linejoin:round;paint-order:stroke fill markers"
       d="m 55.44982,22.014502 c 0.37863,0.63104 0.41018,3.029 0.47328,3.7547 0.0631,0.7257 0.7257,4.16488 -0.22086,2.90279 -0.94657,-1.26208 -2.74503,-3.37608 -3.72315,-4.44884 -0.97811,-1.07278 -1.57761,-2.30331 -1.32519,-3.02901 0.25242,-0.72569 4.79592,0.82036 4.79592,0.82036 z"
       id="paravertebrals1" /><path
       style="opacity:1;fill:#ffffff;stroke:none;stroke-width:1;stroke-linecap:round;stroke-linejoin:round;paint-order:stroke fill markers"
       d="m 48.09818,25.232812 c 0.34708,1.10433 1.10433,4.60661 1.57761,6.08956 0.47328,1.48295 1.29363,6.08955 2.68193,6.24731 1.38829,0.15776 0.47328,-1.32519 0.41017,-2.20865 -0.0631,-0.88346 1.07277,-1.89312 1.48295,-2.58726 0.41018,-0.69415 0.44173,-0.7257 0.44173,-0.7257 0,0 0.66259,-1.76692 0.0631,-2.77659 -0.59949,-1.00966 -1.5145,-2.2402 -3.06055,-2.77658 -1.54605,-0.53639 -2.90279,-2.1771 -3.59694,-1.26209 z"
       id="upper_back1"
       sodipodi:nodetypes="csssscssc" /><path
       style="opacity:1;fill:#ffffff;stroke:none;stroke-width:1;stroke-linecap:round;stroke-linejoin:round;paint-order:stroke fill markers"
       d="m 63.02249,18.827742 c -1.57761,-0.7257 -3.37607,-1.76692 -3.66004,-2.33486 -0.28397,-0.56794 -0.85191,-3.43918 -0.94657,-4.16487 -0.0947,-0.7257 -0.8519,0.47328 -0.94656,2.3664 -0.0947,1.89313 0.18931,3.56539 0.18931,3.94401 0,0.37863 -1.10432,2.52417 0,2.42952 1.10433,-0.0947 1.67227,-0.53639 2.68193,-1.07278 1.00967,-0.53638 2.27175,-0.53638 2.68193,-1.16742 z"
       id="trapezius4" /><path
       style="opacity:1;fill:#ffffff;stroke:none;stroke-width:1;stroke-linecap:round;stroke-linejoin:round;paint-order:stroke fill markers"
       d="m 57.59553,22.014502 c -0.37863,0.63104 -0.41018,3.029 -0.47328,3.7547 -0.0631,0.7257 -0.7257,4.16488 0.22086,2.90279 0.94657,-1.26208 2.74503,-3.37608 3.72315,-4.44884 0.97811,-1.07278 1.57761,-2.30331 1.32519,-3.02901 -0.25242,-0.72569 -4.79592,0.82036 -4.79592,0.82036 z"
       id="paravertebrals2" /><path
       style="opacity:1;fill:#ffffff;stroke:none;stroke-width:1;stroke-linecap:round;stroke-linejoin:round;paint-order:stroke fill markers"
       d="m 64.94717,25.232812 c -0.34708,1.10433 -1.10433,4.60661 -1.57761,6.08956 -0.47328,1.48295 -1.29363,6.08955 -2.68193,6.24731 -1.38829,0.15776 -0.47328,-1.32519 -0.41017,-2.20865 0.0631,-0.88346 -1.07277,-1.89312 -1.48295,-2.58726 -0.41018,-0.69415 -0.44173,-0.7257 -0.44173,-0.7257 0,0 -0.66259,-1.76692 -0.0631,-2.77659 0.59949,-1.00966 1.5145,-2.2402 3.06055,-2.77658 1.54605,-0.53639 2.90279,-2.1771 3.59694,-1.26209 z"
       id="upper_back2"
       sodipodi:nodetypes="csssscssc" /><path
       style="opacity:1;fill:#ffffff;stroke:none;stroke-width:1;stroke-linecap:round;stroke-linejoin:round;paint-order:stroke fill markers"
       d="m 53.80911,35.266382 c 0.50483,-0.50483 0.6626,-0.7888 1.23053,-1.70381 0.56794,-0.91501 0.7257,-2.68193 1.29364,-2.65038 0.56794,0.0316 0.8519,1.83002 1.26208,2.49262 0.41018,0.66259 1.19898,1.45139 1.48295,2.01933 0.28397,0.56794 -0.7888,3.24987 -1.13587,3.7547 -0.34708,0.50483 -1.23054,1.70381 -1.23054,2.17709 0,0.47328 -0.94656,0.6626 -1.00966,-0.37862 -0.0631,-1.04122 -1.00967,-2.61883 -1.5145,-3.59694 -0.50484,-0.97811 -0.56794,-1.5776 -0.37863,-2.11399 z"
       id="lower-back" /><path
       style="opacity:1;fill:#ffffff;stroke:none;stroke-width:1;stroke-linecap:round;stroke-linejoin:round;paint-order:stroke fill markers"
       d="m 48.69767,44.921312 c 0.31552,-1.19898 1.23053,-5.17454 2.93434,-4.92212 1.70382,0.25242 2.99745,0.75725 3.50228,2.2402 0.50484,1.48294 0.5995,2.58727 0.56794,3.50228 -0.0315,0.91501 -1.41984,3.56539 -2.46106,3.91246 -1.04122,0.34707 -3.91246,1.45139 -4.44884,2.05088 -0.53639,0.59949 -0.75726,-1.73536 -0.7257,-2.96589 0.0315,-1.23053 0.34707,-2.52417 0.63104,-3.81781 z"
       id="gluteus1" /><path
       style="opacity:1;fill:#ffffff;stroke:none;stroke-width:1;stroke-linecap:round;stroke-linejoin:round;paint-order:stroke fill markers"
       d="m 64.44467,44.921312 c -0.31552,-1.19898 -1.23053,-5.17454 -2.93434,-4.92212 -1.70382,0.25242 -2.99745,0.75725 -3.50228,2.2402 -0.50484,1.48294 -0.5995,2.58727 -0.56794,3.50228 0.0315,0.91501 1.41984,3.56539 2.46106,3.91246 1.04122,0.34707 3.91246,1.45139 4.44884,2.05088 0.53639,0.59949 0.75726,-1.73536 0.7257,-2.96589 -0.0315,-1.23053 -0.34707,-2.52417 -0.63104,-3.81781 z"
       id="gluteus2" /><path
       style="opacity:1;fill:#ffffff;stroke:none;stroke-width:1.09875;stroke-linecap:round;stroke-linejoin:round;paint-order:stroke fill markers"
       d="m 54.31796,51.098082 c 0.32797,1.57421 0.50231,4.44085 -0.0314,6.46985 -0.53369,2.02901 -3.76726,4.67056 -4.0498,5.58935 -0.28254,0.9188 -0.87902,-1.76103 -1.03599,-3.79003 -0.15696,-2.02901 -0.62788,-5.43622 -0.0941,-6.12532 2.72894,-3.52354 5.01108,-3.10494 5.21132,-2.14385 z"
       id="hamstrings1"
       sodipodi:nodetypes="sssscs" /><path
       style="opacity:1;fill:#ffffff;stroke:none;stroke-width:1.11554;stroke-linecap:round;stroke-linejoin:round;paint-order:stroke fill markers"
       d="m 58.71576,51.098082 c -0.33807,1.57421 -0.51779,4.44085 0.0324,6.46985 0.55013,2.02901 3.88332,4.67056 4.17457,5.58935 0.29124,0.9188 0.90609,-1.76103 1.0679,-3.79003 0.1618,-2.02901 0.64723,-5.43622 0.097,-6.12532 -2.81302,-3.52354 -5.16547,-3.10494 -5.37187,-2.14385 z"
       id="hamstrings2"
       sodipodi:nodetypes="sssscs" /><path
       style="opacity:1;fill:#ffffff;stroke:none;stroke-width:0.109759;stroke-linecap:round;stroke-linejoin:round;paint-order:stroke fill markers"
       d="m 48.17324,69.687732 c -0.0852,-1.09235 0.89082,-4.07825 2.19369,-4.65339 0.34026,-0.15021 0.34812,0.44986 0.34636,0.71155 -0.007,0.97839 -0.0415,1.95583 -0.11014,2.93152 -0.1317,1.87194 0.42775,3.12232 -1.34857,3.88508 -0.83718,0.35949 -1.01034,-1.96397 -1.08134,-2.87476 z"
       id="calves5"
       sodipodi:nodetypes="ssssss" /><path
       style="opacity:1;fill:#ffffff;stroke:none;stroke-width:0.107669;stroke-linecap:round;stroke-linejoin:round;paint-order:stroke fill markers"
       d="m 52.27987,74.066172 c -0.65937,0.17113 -0.93226,0.0268 -1.41511,-0.45777 -0.25563,-0.25653 0.40252,-2.55472 0.39917,-2.90206 -0.0101,-1.04106 -0.0766,-2.08066 -0.0771,-3.12192 -3.7e-4,-0.71705 -0.008,-1.43565 0.0251,-2.15188 0.0153,-0.33406 0.29851,-0.54287 0.59565,-0.26351 0.42854,0.4029 1.05031,0.59749 1.40575,1.06641 0.32344,0.42669 0.28534,1.02679 0.42525,1.54145 0.26008,0.95675 0.43085,1.94307 0.47264,2.9344 0.0315,0.74605 0.0127,1.28786 -0.35808,1.94694 -0.36226,0.64385 -0.79668,1.23235 -1.47327,1.40794 z"
       id="calves6"
       sodipodi:nodetypes="sssssssssss" /><path
       style="opacity:1;fill:#ffffff;stroke:none;stroke-width:0.109759;stroke-linecap:round;stroke-linejoin:round;paint-order:stroke fill markers"
       d="m 64.78111,69.687732 c 0.0852,-1.09235 -0.89082,-4.07825 -2.19369,-4.65339 -0.34026,-0.15021 -0.34812,0.44986 -0.34636,0.71155 0.007,0.97839 0.0415,1.95583 0.11014,2.93152 0.1317,1.87194 -0.42775,3.12232 1.34857,3.88508 0.83718,0.35949 1.01034,-1.96397 1.08134,-2.87476 z"
       id="calves9"
       sodipodi:nodetypes="ssssss" /><path
       style="opacity:1;fill:#ffffff;stroke:none;stroke-width:0.107669;stroke-linecap:round;stroke-linejoin:round;paint-order:stroke fill markers"
       d="m 60.67448,74.066172 c 0.65937,0.17113 0.93226,0.0268 1.41511,-0.45777 0.25563,-0.25653 -0.40252,-2.55472 -0.39917,-2.90206 0.0101,-1.04106 0.0766,-2.08066 0.0771,-3.12192 3.7e-4,-0.71705 0.008,-1.43565 -0.0251,-2.15188 -0.0153,-0.33406 -0.29851,-0.54287 -0.59565,-0.26351 -0.42854,0.4029 -1.05031,0.59749 -1.40575,1.06641 -0.32344,0.42669 -0.28534,1.02679 -0.42525,1.54145 -0.26008,0.95675 -0.43085,1.94307 -0.47264,2.9344 -0.0315,0.74605 -0.0127,1.28786 0.35808,1.94694 0.36226,0.64385 0.79668,1.23235 1.47327,1.40794 z"
       id="calves8"
       sodipodi:nodetypes="sssssssssss" /><path
       style="opacity:1;fill:#ffffff;stroke:none;stroke-width:1;stroke-linecap:round;stroke-linejoin:round;paint-order:stroke fill markers"
       d="m 50.30683,74.895802 c 0.82035,0.12621 1.4514,0.25242 1.38829,1.23054 -0.0631,0.97811 0.0315,4.85902 0.0947,5.67937 0.0631,0.82035 -1.35675,3.66004 -1.07278,2.33486 0.28397,-1.32519 0.56794,-2.39796 0.25242,-3.91246 -0.31552,-1.5145 -1.41984,-4.00712 -1.45139,-4.66971 -0.0315,-0.6626 0.37862,-1.19898 0.7888,-0.6626 z"
       id="calves7"
       sodipodi:nodetypes="csssscc" /><path
       style="opacity:1;fill:#ffffff;stroke:none;stroke-width:1;stroke-linecap:round;stroke-linejoin:round;paint-order:stroke fill markers"
       d="m 62.77033,74.895802 c -0.82035,0.12621 -1.4514,0.25242 -1.38829,1.23054 0.0631,0.97811 -0.0315,4.85902 -0.0947,5.67937 -0.0631,0.82035 1.35675,3.66004 1.07278,2.33486 -0.28397,-1.32519 -0.56794,-2.39796 -0.25242,-3.91246 0.31552,-1.5145 1.41984,-4.00712 1.45139,-4.66971 0.0315,-0.6626 -0.37862,-1.19898 -0.7888,-0.6626 z"
       id="calves10"
       sodipodi:nodetypes="csssscc" /><path
       style="opacity:1;fill:#ffffff;stroke:none;stroke-width:0.337296;stroke-linecap:round;stroke-linejoin:round;paint-order:stroke fill markers"
       d="m 41.75896,42.272052 c 0.11165,-1.62118 -0.42963,-3.90767 0.19989,-5.81636 0.67732,-2.05367 0.43638,-2.66193 1.18879,-2.94928 0.29073,-0.11103 1.95608,-0.04 2.02326,0.0272 0.13848,0.13848 -0.0591,2.74708 -0.27597,3.64351 -0.096,0.39682 -0.76984,1.38741 -1.17021,2.36494 -0.88451,2.1596 -0.97742,3.36075 -0.97742,3.81875 0,0.31591 -0.0241,0.35063 -0.27889,0.40159 -1.10956,0.20656 -0.77472,-0.69751 -0.70945,-1.49035 z"
       id="forearms3"
       sodipodi:nodetypes="sssssssss" /><path
       style="opacity:1;fill:#ffffff;stroke:none;stroke-width:0.337296;stroke-linecap:round;stroke-linejoin:round;paint-order:stroke fill markers"
       d="m 71.29908,42.272052 c -0.11165,-1.62118 0.42963,-3.90767 -0.19989,-5.81636 -0.67732,-2.05367 -0.43638,-2.66193 -1.18879,-2.94928 -0.29073,-0.11103 -1.95608,-0.04 -2.02326,0.0272 -0.13848,0.13848 0.0591,2.74708 0.27597,3.64351 0.096,0.39682 0.76984,1.38741 1.17021,2.36494 0.88451,2.1596 0.97742,3.36075 0.97742,3.81875 0,0.31591 0.0241,0.35063 0.27889,0.40159 1.10956,0.20656 0.77472,-0.69751 0.70945,-1.49035 z"
       id="forearms4"
       sodipodi:nodetypes="sssssssss" /></g></svg>
